<svg width="1360" height="162" viewBox="0 0 1360 162" fill="none" xmlns="http://www.w3.org/2000/svg">
<path d="M750.588 0.5H956.079C957.236 0.5 957.758 0.501617 958.25 0.58465C959.177 0.740832 960.057 1.10962 960.822 1.66323C961.229 1.95768 961.599 2.33034 962.417 3.15873L1010.21 51.544C1011.02 52.3722 1011.39 52.7473 1011.68 53.1597C1012.23 53.9352 1012.59 54.8276 1012.75 55.7688C1012.83 56.2695 1012.83 56.7991 1012.83 57.9702V104.03C1012.83 105.201 1012.83 105.73 1012.75 106.231C1012.59 107.172 1012.23 108.065 1011.68 108.84C1011.39 109.253 1011.02 109.628 1010.21 110.456L962.417 158.841C961.599 159.67 961.229 160.042 960.822 160.337C960.057 160.89 959.177 161.259 958.25 161.415C957.758 161.498 957.236 161.5 956.079 161.5H750.588C749.431 161.5 748.909 161.498 748.417 161.415C747.49 161.259 746.61 160.89 745.845 160.337C745.438 160.042 745.068 159.67 744.25 158.841L696.462 110.456C695.644 109.628 695.276 109.253 694.985 108.84C694.437 108.065 694.072 107.172 693.917 106.231C693.835 105.73 693.833 105.201 693.833 104.03V57.9702C693.833 56.7991 693.835 56.2695 693.917 55.7688C694.072 54.8276 694.437 53.9352 694.985 53.1597C695.276 52.7473 695.644 52.3722 696.462 51.5439L744.25 3.15873C745.068 2.33034 745.438 1.95768 745.845 1.66323C746.61 1.10962 747.49 0.740832 748.417 0.58465C748.909 0.501617 749.431 0.5 750.588 0.5ZM950.534 53.5H756.134L756.004 53.5C753.521 53.4999 752.14 53.4998 751.01 53.8915C748.913 54.6184 747.269 56.2851 746.553 58.4034C746.167 59.5447 746.167 60.9396 746.167 63.4573V63.585V98.415V98.5426C746.167 101.06 746.167 102.455 746.553 103.597C747.269 105.715 748.913 107.382 751.01 108.108C752.14 108.5 753.521 108.5 756.004 108.5H756.133H950.534H950.663C953.146 108.5 954.527 108.5 955.657 108.108C957.754 107.382 959.398 105.715 960.114 103.597C960.5 102.455 960.5 101.06 960.5 98.5422V98.415V63.585V63.4577C960.5 60.9398 960.5 59.5448 960.114 58.4034C959.398 56.2851 957.754 54.6184 955.657 53.8915C954.527 53.4998 953.146 53.4999 950.663 53.5L950.534 53.5Z" stroke="#AFAFAF" stroke-opacity="0.1"/>
<path d="M316.872 51.544L269.084 3.15876C268.265 2.33036 267.895 1.95771 267.488 1.66325C266.723 1.10964 265.843 0.740852 264.917 0.584678C264.424 0.50164 263.903 0.500022 262.745 0.500023L9.46665 0.50003C6.81883 0.50003 5.62119 0.506988 4.67098 0.83638C2.86941 1.46091 1.45154 2.89482 0.833082 4.72375C0.506643 5.68913 0.499998 6.9055 0.499997 9.58502L0.49999 44.415C0.499989 47.0946 0.506635 48.311 0.833073 49.2763C1.45153 51.1053 2.8694 52.5392 4.67097 53.1637C5.62118 53.4931 6.81883 53.5 9.46667 53.5L257.2 53.5L257.33 53.5C259.813 53.4999 261.193 53.4998 262.323 53.8915C264.42 54.6184 266.065 56.2851 266.781 58.4034C267.167 59.5447 267.167 60.9396 267.167 63.4572L267.167 63.585L267.167 98.415L267.167 98.5428C267.167 101.06 267.167 102.455 266.781 103.597C266.065 105.715 264.42 107.382 262.323 108.108C261.193 108.5 259.813 108.5 257.33 108.5L257.2 108.5L9.46667 108.5C6.81884 108.5 5.62119 108.507 4.67098 108.836C2.86941 109.461 1.45153 110.895 0.83308 112.724C0.506642 113.689 0.499997 114.905 0.499999 117.585L0.500021 152.415C0.500022 155.095 0.506669 156.311 0.833107 157.276C1.45156 159.105 2.86943 160.539 4.67101 161.164C5.62122 161.493 6.81886 161.5 9.46669 161.5L262.745 161.5C263.903 161.5 264.424 161.498 264.917 161.415C265.843 161.259 266.723 160.89 267.488 160.337C267.895 160.042 268.265 159.67 269.084 158.841L316.872 110.456C317.69 109.628 318.058 109.253 318.349 108.84C318.896 108.065 319.261 107.172 319.416 106.231C319.498 105.731 319.5 105.201 319.5 104.03L319.5 57.9702C319.5 56.7991 319.498 56.2695 319.416 55.7688C319.261 54.8277 318.896 53.9353 318.349 53.1597C318.058 52.7473 317.69 52.3722 316.872 51.544Z" stroke="#AFAFAF" stroke-opacity="0.1"/>
<path d="M349.795 51.544L397.583 3.15873C398.401 2.33034 398.771 1.95768 399.178 1.66323C399.943 1.10962 400.823 0.740832 401.75 0.58465C402.242 0.501617 402.764 0.5 403.921 0.5H609.412C610.569 0.5 611.091 0.501617 611.583 0.58465C612.51 0.740832 613.39 1.10962 614.155 1.66323C614.562 1.95768 614.932 2.33034 615.75 3.15873L663.538 51.544C664.356 52.3722 664.724 52.7473 665.015 53.1597C665.563 53.9352 665.928 54.8276 666.083 55.7688C666.165 56.2695 666.167 56.7991 666.167 57.9702V152.415C666.167 155.094 666.16 156.311 665.833 157.276C665.215 159.105 663.797 160.539 661.996 161.164C661.045 161.493 659.848 161.5 657.2 161.5H622.8C620.152 161.5 618.954 161.493 618.004 161.164C616.203 160.539 614.785 159.105 614.166 157.276C613.84 156.311 613.833 155.094 613.833 152.415V108V63.585V63.4572C613.833 60.9396 613.833 59.5447 613.447 58.4034C612.731 56.2851 611.087 54.6184 608.99 53.8915C607.86 53.4998 606.479 53.4999 603.996 53.5L603.867 53.5H560H409.467L409.337 53.5C406.854 53.4999 405.473 53.4998 404.343 53.8915C402.246 54.6184 400.602 56.2851 399.886 58.4034C399.5 59.5447 399.5 60.9396 399.5 63.4573V63.585V98.415V98.5426C399.5 101.06 399.5 102.455 399.886 103.597C400.602 105.715 402.246 107.382 404.343 108.108C405.473 108.5 406.854 108.5 409.337 108.5H409.467H550.533C553.181 108.5 554.379 108.507 555.329 108.836C557.13 109.461 558.548 110.895 559.167 112.724C559.493 113.689 559.5 114.905 559.5 117.585V152.415C559.5 155.094 559.493 156.311 559.167 157.276C558.548 159.105 557.13 160.539 555.329 161.164C554.379 161.493 553.181 161.5 550.533 161.5H356.133C353.485 161.5 352.288 161.493 351.337 161.164C349.536 160.539 348.118 159.105 347.5 157.276C347.173 156.311 347.167 155.094 347.167 152.415V57.9702C347.167 56.7991 347.168 56.2695 347.25 55.7688C347.405 54.8276 347.77 53.9352 348.318 53.1597C348.609 52.7473 348.977 52.3722 349.795 51.544Z" stroke="#AFAFAF" stroke-opacity="0.1"/>
<path d="M1173.83 152.415V117.585V117.457C1173.83 114.94 1173.83 113.545 1173.45 112.403C1172.73 110.285 1171.09 108.618 1168.99 107.891C1167.86 107.5 1166.48 107.5 1164 107.5H1163.87H1049.47C1046.82 107.5 1045.62 107.493 1044.67 107.164C1042.87 106.539 1041.45 105.105 1040.83 103.276C1040.51 102.311 1040.5 101.095 1040.5 98.415V63.585C1040.5 60.9054 1040.51 59.6891 1040.83 58.7237C1041.45 56.8948 1042.87 55.4609 1044.67 54.8363C1045.62 54.5069 1046.82 54.5 1049.47 54.5H1163.87L1164 54.5C1166.48 54.5001 1167.86 54.5002 1168.99 54.1085C1171.09 53.3816 1172.73 51.7149 1173.45 49.5966C1173.83 48.4552 1173.83 47.0603 1173.83 44.5425V44.415V9.585C1173.83 6.90546 1173.84 5.68909 1174.17 4.72372C1174.78 2.89479 1176.2 1.46087 1178 0.836343C1178.95 0.506948 1180.15 0.5 1182.8 0.5H1217.2C1219.85 0.5 1221.05 0.506948 1222 0.836343C1223.8 1.46087 1225.22 2.89479 1225.83 4.72372C1226.16 5.68909 1226.17 6.90547 1226.17 9.585V44.415V44.5425C1226.17 47.0603 1226.17 48.4552 1226.55 49.5966C1227.27 51.7149 1228.91 53.3816 1231.01 54.1085C1232.14 54.5002 1233.52 54.5001 1236 54.5L1236.13 54.5H1350.53C1353.18 54.5 1354.38 54.5069 1355.33 54.8363C1357.13 55.4609 1358.55 56.8948 1359.17 58.7237C1359.49 59.6891 1359.5 60.9055 1359.5 63.585V98.415C1359.5 101.094 1359.49 102.311 1359.17 103.276C1358.55 105.105 1357.13 106.539 1355.33 107.164C1354.38 107.493 1353.18 107.5 1350.53 107.5H1236.13H1236C1233.52 107.5 1232.14 107.5 1231.01 107.891C1228.91 108.618 1227.27 110.285 1226.55 112.403C1226.17 113.545 1226.17 114.94 1226.17 117.457V117.585V152.415C1226.17 155.094 1226.16 156.311 1225.83 157.276C1225.22 159.105 1223.8 160.539 1222 161.164C1221.05 161.493 1219.85 161.5 1217.2 161.5H1182.8C1180.15 161.5 1178.95 161.493 1178 161.164C1176.2 160.539 1174.78 159.105 1174.17 157.276C1173.84 156.311 1173.83 155.094 1173.83 152.415Z" stroke="#AFAFAF" stroke-opacity="0.1"/>
</svg>
